<?xml version="1.0" standalone="no"?>
<!DOCTYPE svg PUBLIC "-//W3C//DTD SVG 20010904//EN"
 "http://www.w3.org/TR/2001/REC-SVG-20010904/DTD/svg10.dtd">
<svg version="1.0" xmlns="http://www.w3.org/2000/svg"
 width="4064.000000pt" height="4064.000000pt" viewBox="0 0 4064.000000 4064.000000"
 preserveAspectRatio="xMidYMid meet">
<metadata>
Created by potrace 1.14, written by Peter Selinger 2001-2017
</metadata>
<g transform="translate(0.000000,4064.000000) scale(0.100000,-0.100000)"
fill="#000000" stroke="none">
<path d="M3568 24495 c-2 -2 -46 -6 -98 -9 -103 -6 -135 -10 -280 -32 -121
-19 -185 -30 -185 -34 0 -1 -13 -3 -30 -6 -37 -5 -70 -12 -70 -14 0 -1 -9 -3
-19 -5 -17 -3 -62 -15 -76 -20 -3 -1 -24 -5 -47 -10 -24 -4 -43 -11 -43 -14 0
-4 -8 -7 -17 -8 -21 -1 -135 -35 -178 -53 -16 -7 -37 -14 -45 -16 -15 -3 -124
-46 -175 -69 -16 -7 -61 -28 -100 -45 -88 -40 -218 -103 -225 -110 -6 -6 -86
-50 -117 -65 -13 -5 -23 -13 -23 -17 0 -5 -5 -8 -11 -8 -6 0 -30 -13 -54 -30
-24 -16 -48 -30 -54 -30 -6 0 -11 -4 -11 -10 0 -5 -6 -10 -14 -10 -8 0 -16 -3
-18 -7 -1 -5 -23 -21 -48 -38 -45 -30 -121 -85 -150 -109 -9 -7 -40 -32 -70
-55 -219 -172 -475 -436 -655 -675 -106 -140 -295 -438 -295 -464 0 -6 -3 -12
-7 -14 -12 -5 -63 -104 -58 -110 3 -3 -1 -11 -10 -18 -8 -7 -15 -16 -15 -20 0
-5 -18 -47 -40 -94 -22 -47 -40 -88 -40 -91 0 -4 -10 -27 -21 -53 -12 -25 -30
-71 -40 -102 -29 -84 -72 -214 -75 -225 -1 -5 -10 -37 -19 -70 -9 -33 -18 -68
-20 -78 -2 -9 -6 -20 -8 -25 -3 -4 -8 -23 -11 -42 -3 -19 -8 -46 -11 -60 -3
-14 -8 -35 -11 -47 -2 -13 -6 -35 -9 -50 -11 -56 -15 -79 -20 -118 -2 -22 -7
-53 -9 -70 -37 -233 -43 -724 -11 -945 2 -19 7 -53 10 -75 10 -80 27 -183 41
-245 3 -14 7 -36 10 -50 3 -14 16 -68 30 -120 14 -52 27 -105 29 -116 3 -12
23 -75 45 -140 22 -66 42 -123 44 -129 5 -15 17 -46 37 -94 11 -24 19 -50 19
-57 0 -8 5 -14 10 -14 6 0 10 -7 10 -16 0 -15 157 -342 170 -354 3 -3 36 -57
75 -120 102 -170 237 -356 361 -498 111 -127 332 -342 454 -442 30 -25 57 -47
60 -50 9 -10 154 -116 185 -136 17 -10 32 -21 35 -24 13 -14 70 -50 79 -50 5
0 11 -3 13 -8 4 -11 212 -132 226 -132 7 0 12 -3 12 -7 0 -5 28 -21 63 -38 34
-16 65 -34 68 -38 3 -5 10 -9 15 -9 12 -1 37 -10 114 -46 36 -16 97 -41 135
-57 39 -15 79 -31 90 -36 29 -12 190 -63 260 -84 33 -9 72 -21 88 -25 15 -5
27 -7 27 -4 0 3 8 0 19 -5 10 -6 38 -13 61 -16 23 -3 45 -7 49 -10 4 -2 23 -7
42 -10 19 -3 41 -8 49 -10 8 -2 35 -7 59 -10 23 -3 46 -7 50 -9 6 -4 68 -12
171 -22 25 -2 65 -7 90 -11 25 -4 957 -8 2073 -10 l2028 -4 -1 2015 c-1 1107
-4 2017 -7 2020 -4 3 -7 27 -8 53 -3 54 -13 155 -20 193 -11 61 -17 98 -20
132 -2 20 -6 41 -9 46 -3 5 -8 27 -11 48 -6 43 -13 79 -15 79 -1 0 -4 11 -6
25 -8 43 -54 211 -82 295 -14 44 -25 83 -24 88 1 4 -2 7 -7 7 -6 0 -8 9 -6 20
2 11 -1 20 -6 20 -6 0 -8 4 -4 9 3 5 1 12 -3 15 -5 3 -15 26 -22 51 -7 25 -17
48 -21 51 -5 3 -9 11 -9 18 0 8 -17 49 -37 92 -20 44 -37 81 -37 84 -2 8 -91
185 -96 190 -4 4 -24 39 -63 111 -30 58 -154 245 -204 311 -24 31 -43 61 -43
67 0 6 -4 11 -8 11 -5 0 -23 19 -40 43 -17 23 -43 56 -57 72 -14 17 -47 55
-73 85 -52 60 -266 276 -327 330 -22 20 -76 64 -120 100 -44 35 -82 67 -85 70
-3 3 -27 21 -55 40 -52 36 -55 38 -94 70 -13 11 -30 20 -38 20 -7 0 -13 5 -13
11 0 5 -15 16 -33 24 -19 8 -39 21 -47 29 -7 9 -19 16 -26 16 -8 0 -14 5 -14
10 0 6 -4 10 -9 10 -5 0 -45 21 -88 46 -107 64 -220 121 -338 173 -55 24 -118
52 -141 63 -22 10 -47 21 -55 22 -8 2 -21 6 -29 9 -126 51 -456 144 -575 162
-22 3 -56 10 -75 15 -19 4 -55 11 -80 15 -25 3 -56 8 -70 10 -41 5 -151 18
-200 22 -58 5 -508 12 -512 8z"/>
<path d="M13663 23004 c-71 -15 -170 -62 -215 -102 -61 -55 -88 -82 -88 -92 0
-5 -6 -13 -14 -17 -18 -11 -74 -131 -83 -179 -9 -46 -10 -176 -1 -220 28 -144
145 -295 277 -356 25 -12 51 -23 58 -24 6 -1 29 -8 50 -15 51 -17 234 -17 303
0 60 15 157 58 178 78 7 7 17 13 21 13 16 0 114 107 141 155 42 74 71 169 71
240 0 85 -42 255 -63 255 -4 0 -8 6 -8 14 0 21 -120 140 -180 178 -55 34 -140
73 -140 63 0 -3 -10 -1 -22 6 -31 17 -212 19 -285 3z"/>
<path d="M10063 20419 l0 -2549 1536 2 1536 3 2 408 1 407 -1084 0 -1084 0 0
2140 0 2139 -454 0 -453 -1 0 -2549z"/>
<path d="M16737 21414 c-1 -1 -47 -4 -102 -8 -132 -8 -204 -22 -315 -59 -44
-15 -191 -87 -206 -101 -6 -6 -23 -20 -39 -31 -16 -11 -41 -33 -57 -48 -15
-15 -28 -25 -28 -21 0 14 -129 -130 -198 -221 -24 -31 -75 -122 -75 -132 0 -7
-6 -14 -14 -17 -11 -4 -13 45 -13 273 l0 277 -410 1 -410 0 0 -121 c-1 -148
-1 -3234 0 -3294 l0 -42 432 2 431 3 2 1010 c1 817 4 1023 15 1080 8 39 14 78
13 88 0 9 4 17 8 17 5 0 9 9 9 19 0 24 41 134 53 142 4 3 9 13 11 21 1 8 9 27
19 41 9 15 17 28 17 31 0 17 160 176 177 176 7 0 13 4 13 8 0 13 137 78 201
96 165 47 376 40 504 -16 85 -38 177 -117 230 -198 28 -44 85 -174 91 -208 3
-14 7 -29 10 -34 3 -4 7 -17 10 -28 2 -11 6 -30 9 -42 15 -69 25 -179 31 -328
2 -69 5 -136 7 -150 1 -14 -1 -27 -5 -30 -4 -3 -3 -22 1 -42 5 -20 6 -39 4
-42 -5 -5 -7 -440 -3 -461 1 -5 2 -14 1 -20 -3 -14 -3 -288 -1 -300 1 -5 2
-14 1 -20 -2 -5 -2 -82 -1 -170 0 -88 1 -167 0 -175 0 -8 0 -35 -1 -60 0 -25
0 -49 1 -55 1 -5 2 -14 1 -20 -6 -28 -2 -315 4 -324 4 -8 138 -11 429 -11 395
0 424 1 428 18 6 26 -1 2289 -7 2347 -3 28 -7 70 -9 95 -3 25 -5 45 -6 45 -1
0 -4 14 -6 30 -4 25 -43 182 -58 235 -14 48 -65 157 -111 240 -33 59 -141 190
-157 190 -6 0 -8 3 -5 6 13 13 -166 143 -262 191 -53 26 -98 51 -101 54 -7 8
-162 53 -225 65 -44 8 -102 16 -145 19 -25 2 -45 4 -45 5 0 1 -146 5 -148 4z"/>
<path d="M20157 21414 c-1 -1 -51 -5 -112 -8 -111 -7 -170 -12 -170 -16 0 -1
-12 -3 -28 -5 -144 -19 -415 -113 -508 -177 -14 -9 -29 -15 -33 -11 -3 3 -6 1
-6 -5 0 -7 -5 -12 -10 -12 -12 0 -159 -100 -198 -135 -81 -71 -98 -85 -104
-85 -5 0 -8 -4 -8 -9 0 -5 -19 -29 -42 -53 -77 -81 -104 -116 -181 -231 -21
-32 -44 -70 -51 -85 -6 -15 -22 -47 -36 -72 -13 -25 -25 -49 -26 -55 -1 -5
-14 -36 -28 -68 -14 -31 -26 -58 -25 -60 0 -1 -2 -9 -5 -17 -14 -45 -30 -96
-32 -105 -2 -5 -7 -25 -13 -42 -5 -18 -8 -33 -5 -33 3 0 0 -8 -5 -18 -5 -10
-12 -36 -15 -58 -4 -22 -9 -51 -11 -64 -22 -107 -29 -209 -28 -395 0 -155 7
-266 18 -305 2 -8 7 -35 10 -59 4 -25 18 -85 31 -135 14 -50 26 -98 29 -106 2
-8 4 -15 5 -15 1 0 3 -8 5 -17 2 -9 10 -32 19 -49 9 -18 16 -36 16 -40 0 -9
81 -177 108 -224 29 -52 66 -110 72 -115 3 -3 25 -32 49 -65 67 -90 227 -245
314 -305 20 -14 37 -28 37 -32 0 -5 5 -8 12 -8 6 0 25 -11 43 -24 87 -67 346
-181 485 -214 73 -18 184 -40 200 -40 8 0 44 -3 80 -7 66 -7 273 -7 345 0 58
5 127 14 150 19 353 76 573 196 777 424 26 28 49 52 52 52 8 0 -1 -455 -8
-490 -3 -14 -9 -45 -12 -70 -3 -25 -8 -53 -10 -62 -2 -10 -6 -27 -8 -37 -55
-244 -152 -412 -318 -546 -45 -37 -208 -124 -242 -129 -6 -1 -16 -5 -22 -8
-25 -16 -242 -61 -255 -53 -4 3 -10 2 -13 -3 -2 -4 -32 -8 -65 -7 -34 0 -61
-4 -61 -8 0 -4 -7 -4 -16 1 -8 5 -35 6 -60 2 -24 -4 -46 -5 -48 -2 -3 2 -42 6
-88 8 -46 2 -92 5 -103 7 -11 3 -40 8 -65 12 -25 4 -72 14 -105 22 -33 8 -68
16 -77 18 -9 2 -27 9 -40 16 -13 7 -25 12 -28 12 -7 -1 -30 8 -75 28 -22 9
-43 16 -46 16 -4 -1 -15 5 -25 13 -11 9 -32 22 -49 30 -16 8 -60 33 -98 57
-37 23 -69 43 -72 43 -3 0 -18 11 -33 25 -15 14 -30 25 -33 25 -7 0 -54 37
-143 113 -27 23 -53 42 -58 42 -5 0 -49 -54 -98 -120 -49 -66 -96 -129 -104
-140 -9 -11 -55 -74 -103 -140 -48 -66 -90 -122 -93 -125 -3 -3 -19 -25 -35
-50 -17 -24 -37 -52 -45 -61 -35 -40 -39 -49 -34 -63 3 -9 9 -16 13 -16 3 0
22 -15 41 -33 41 -37 46 -41 166 -123 90 -62 263 -161 276 -157 3 1 12 -4 18
-12 7 -8 18 -15 25 -15 6 0 40 -12 76 -26 50 -21 208 -72 252 -82 4 -1 8 -2
10 -3 9 -3 45 -11 62 -13 11 -2 20 -5 20 -6 0 -1 9 -4 20 -6 48 -7 84 -14 135
-24 68 -13 145 -23 188 -24 17 0 32 -3 32 -6 0 -3 17 -6 38 -6 248 -9 323 -14
332 -19 5 -3 10 -3 10 2 0 4 46 8 103 7 56 0 106 2 110 4 5 2 34 6 65 7 31 2
77 7 102 10 25 4 56 8 70 10 14 2 26 4 28 5 1 1 10 3 20 4 9 1 31 5 47 9 17 4
41 9 55 11 14 3 50 12 80 21 30 9 60 17 65 19 30 7 63 19 90 31 81 35 107 45
120 45 8 0 15 4 15 9 0 8 37 24 53 22 4 -1 7 4 7 9 0 6 5 10 11 10 14 0 133
71 137 82 2 4 8 8 14 8 44 0 303 253 411 400 18 26 22 32 70 116 15 27 31 56
36 64 5 8 13 26 19 40 6 14 23 52 38 85 15 33 28 65 30 70 1 6 14 50 29 99 15
49 28 94 29 100 1 6 5 20 9 31 3 11 8 31 11 45 3 14 7 34 9 45 5 22 19 102 22
125 11 79 17 119 20 140 18 116 26 650 10 650 -7 0 -7 3 0 8 6 4 10 149 10
397 0 248 -4 393 -10 397 -7 5 -7 8 0 8 6 0 10 85 10 235 0 150 -4 235 -10
235 -7 0 -7 3 0 8 7 4 10 255 10 717 0 462 -3 713 -10 717 -7 5 -6 8 0 8 8 0
11 69 6 121 -1 3 -185 6 -410 6 l-409 -1 0 -225 c-1 -301 -1 -291 -9 -291 -5
1 -31 35 -60 78 -79 117 -243 278 -303 297 -11 4 -20 10 -20 14 0 10 -212 111
-232 111 -8 0 -18 4 -23 8 -9 7 -59 24 -114 38 -84 21 -162 36 -191 38 -19 1
-40 4 -45 7 -9 5 -52 7 -188 13 -21 0 -39 0 -40 0z m373 -789 c345 -45 584
-207 739 -499 23 -43 43 -86 44 -95 1 -9 5 -20 8 -26 5 -8 13 -34 25 -80 1 -5
5 -26 8 -45 4 -19 9 -42 12 -52 3 -9 6 -46 8 -83 3 -37 7 -69 9 -72 3 -3 2
-16 -3 -29 -6 -14 -6 -26 1 -29 5 -4 7 -10 4 -14 -2 -5 -7 -44 -10 -87 -3 -44
-7 -86 -10 -94 -2 -8 -7 -30 -10 -49 -3 -19 -10 -42 -16 -52 -5 -11 -7 -19 -4
-19 3 0 -1 -16 -9 -35 -8 -19 -13 -35 -11 -35 2 0 -14 -37 -36 -82 -44 -89
-106 -180 -168 -245 -83 -87 -244 -189 -366 -231 -47 -16 -70 -23 -75 -24 -3
0 -25 -7 -50 -14 -124 -38 -381 -37 -525 2 -33 9 -64 17 -70 18 -5 2 -23 9
-40 15 -58 25 -80 32 -81 29 -1 -2 -10 4 -20 12 -11 9 -32 22 -49 30 -65 32
-120 75 -216 170 -74 74 -186 231 -194 272 -2 11 -8 25 -13 32 -11 13 -39 99
-46 138 -3 15 -7 31 -10 36 -7 12 -19 147 -19 217 0 63 9 182 18 225 14 72 18
89 31 130 29 90 96 225 119 242 7 5 7 8 0 8 -7 0 -7 3 0 8 6 4 22 23 36 42 79
104 200 201 334 267 49 24 90 43 90 42 0 -1 23 5 51 15 28 9 62 19 75 21 13 3
35 8 49 10 14 3 50 8 80 11 30 3 56 6 57 7 4 4 212 -2 253 -8z"/>
<path d="M27597 21414 c-1 -1 -45 -4 -97 -8 -147 -9 -197 -15 -299 -35 -30 -6
-56 -9 -59 -6 -3 3 -10 1 -16 -4 -6 -5 -24 -12 -41 -15 -42 -7 -69 -14 -160
-43 -87 -27 -96 -30 -107 -32 -40 -10 -274 -126 -294 -146 -9 -8 -21 -15 -29
-15 -7 0 -15 -3 -17 -7 -1 -5 -25 -24 -53 -42 -27 -19 -52 -37 -55 -41 -3 -3
-21 -17 -40 -32 -19 -14 -59 -49 -89 -77 l-54 -52 224 -224 c123 -124 227
-225 231 -225 4 0 18 11 32 25 14 14 28 25 31 25 3 0 14 8 24 18 80 72 338
208 411 217 3 0 10 3 15 6 9 6 51 18 82 25 6 1 35 7 63 13 154 33 365 33 515
0 67 -15 162 -47 205 -71 67 -36 105 -60 108 -69 2 -5 9 -9 15 -9 6 0 35 -26
64 -57 59 -62 113 -165 133 -251 13 -58 22 -251 12 -254 -4 0 -97 -2 -207 -4
-255 -4 -571 -17 -680 -28 -75 -8 -237 -30 -295 -41 -14 -3 -41 -7 -60 -10
-19 -3 -42 -8 -50 -10 -8 -2 -26 -6 -40 -9 -49 -10 -68 -15 -141 -36 -41 -12
-78 -23 -84 -24 -5 -1 -14 -4 -20 -7 -14 -8 -68 -23 -77 -21 -5 1 -8 -2 -8 -7
0 -5 -12 -12 -27 -16 -48 -12 -219 -102 -278 -147 -109 -83 -254 -234 -247
-259 1 -5 -2 -9 -7 -9 -9 0 -16 -11 -71 -120 -87 -172 -114 -406 -75 -670 8
-57 57 -189 90 -244 19 -32 35 -62 35 -67 0 -5 5 -9 10 -9 6 0 10 -6 10 -14 0
-8 3 -16 8 -18 4 -1 24 -24 45 -50 57 -71 148 -158 166 -158 5 0 11 -4 13 -9
5 -14 106 -75 188 -113 94 -45 237 -94 300 -103 8 -2 58 -10 110 -20 137 -25
413 -25 540 0 161 31 277 68 382 121 40 20 100 55 132 77 58 39 215 190 248
237 64 94 81 113 88 99 4 -8 6 -116 6 -242 l-1 -227 390 2 390 3 -1 1060 c-1
1105 -4 1273 -27 1395 -3 14 -8 41 -12 60 -3 19 -8 44 -10 55 -2 11 -4 20 -5
20 -1 0 -4 10 -13 50 -14 57 -22 83 -35 115 -9 19 -15 39 -13 44 1 5 -5 16
-13 25 -8 9 -15 18 -15 21 0 14 -32 79 -41 85 -5 3 -10 15 -10 26 0 10 -4 19
-10 19 -5 0 -12 11 -16 25 -3 14 -9 25 -13 25 -4 0 -15 14 -25 32 -31 51 -157
171 -237 226 -129 86 -350 178 -498 207 -13 2 -30 6 -39 9 -9 3 -39 8 -67 12
-27 3 -63 8 -80 10 -16 2 -57 6 -90 9 -33 2 -60 4 -60 5 0 1 -206 5 -208 4z
m707 -2162 c-3 -141 -7 -207 -14 -207 -1 0 -3 -15 -6 -34 -5 -39 -43 -151 -56
-165 -4 -6 -8 -18 -8 -28 0 -10 -4 -18 -10 -18 -5 0 -10 -7 -10 -15 0 -8 -5
-15 -11 -15 -5 0 -7 -4 -4 -10 3 -5 2 -10 -2 -10 -5 0 -16 -12 -25 -27 -27
-44 -103 -118 -161 -157 -30 -20 -56 -36 -59 -36 -3 0 -27 -10 -54 -22 -27
-12 -53 -23 -59 -24 -5 -1 -30 -7 -55 -14 -25 -7 -58 -14 -75 -17 -16 -2 -41
-7 -55 -9 -58 -13 -299 -12 -371 1 -194 34 -368 157 -416 294 -37 109 -24 269
29 345 60 86 180 166 333 222 28 10 52 19 55 19 3 1 48 11 100 24 52 13 106
25 120 27 14 1 36 5 50 8 39 8 125 16 245 22 61 3 111 7 112 8 1 1 93 2 205 3
l204 2 -2 -167z"/>
<path d="M31557 21414 c-1 -1 -46 -4 -99 -8 -53 -3 -103 -8 -110 -11 -7 -2
-29 -6 -48 -9 -84 -12 -298 -94 -308 -118 -2 -5 -8 -8 -13 -8 -19 0 -124 -85
-205 -165 -92 -90 -162 -181 -206 -269 -16 -32 -32 -55 -36 -52 -3 4 -6 129
-7 279 l0 272 -410 1 -411 1 0 -1729 0 -1728 432 0 432 0 1 988 c0 543 3 1005
6 1027 17 130 28 187 47 240 16 45 61 149 68 155 3 3 12 18 20 35 13 25 130
149 171 180 73 56 163 94 279 122 133 31 349 19 440 -25 19 -9 37 -16 40 -17
18 -2 106 -74 149 -121 45 -51 74 -102 123 -214 18 -42 54 -186 63 -250 15
-117 18 -322 18 -1187 l1 -933 433 0 434 0 -3 95 c-2 52 1 95 5 95 5 0 5 5 2
10 -10 16 -11 230 -2 230 5 0 5 5 2 10 -10 16 -11 150 -2 150 5 0 5 4 2 10 -9
15 -11 390 -2 390 5 0 5 5 2 10 -9 15 -11 390 -2 390 5 0 5 5 2 10 -10 16 -11
150 -2 150 5 0 5 5 2 10 -10 16 -11 230 -2 230 5 0 5 5 2 10 -10 16 -11 310
-2 310 5 0 5 5 2 10 -4 6 -9 68 -11 138 -4 122 -6 149 -19 237 -8 53 -11 72
-24 125 -7 25 -14 55 -16 67 -3 12 -9 33 -14 45 -5 13 -9 26 -10 31 -3 17 -6
29 -20 62 -40 97 -123 246 -142 253 -5 2 -9 9 -9 14 0 12 -3 16 -88 103 -72
74 -91 90 -167 140 -134 89 -252 139 -430 181 -11 3 -42 7 -70 9 -27 2 -50 5
-50 6 0 4 -232 17 -238 13z"/>
<path d="M35157 21414 c-1 -1 -49 -4 -107 -8 -137 -7 -230 -19 -289 -36 -17
-5 -34 -9 -36 -9 -42 1 -291 -80 -400 -130 -22 -10 -47 -21 -55 -25 -8 -3 -31
-16 -50 -27 -19 -12 -53 -31 -75 -42 -22 -12 -44 -28 -48 -34 -4 -7 -14 -13
-21 -13 -7 0 -21 -8 -32 -18 -10 -10 -35 -29 -54 -42 -48 -34 -101 -81 -190
-171 -86 -87 -117 -126 -179 -218 -24 -36 -52 -78 -61 -92 -26 -38 -84 -153
-82 -161 1 -5 -2 -8 -8 -8 -5 0 -10 -9 -10 -20 0 -11 -5 -20 -10 -20 -6 0 -9
-3 -8 -7 1 -5 -4 -21 -11 -38 -7 -16 -14 -34 -15 -40 -1 -5 -5 -15 -8 -21 -4
-6 -9 -21 -12 -35 -3 -13 -15 -58 -26 -99 -11 -41 -23 -91 -26 -110 -3 -19 -8
-44 -11 -55 -3 -11 -7 -38 -9 -60 -1 -22 -3 -40 -4 -40 -11 0 -14 -362 -4
-440 4 -33 8 -72 8 -87 1 -16 3 -28 6 -28 3 0 6 -12 7 -27 1 -27 3 -38 24
-131 18 -80 77 -249 116 -328 42 -86 56 -111 114 -196 22 -31 39 -61 39 -67 0
-5 3 -11 8 -13 4 -1 32 -34 64 -73 59 -74 182 -195 258 -256 74 -58 184 -132
197 -132 7 0 13 -4 13 -8 0 -6 201 -108 225 -114 5 -1 27 -9 47 -19 21 -9 42
-16 49 -16 6 0 25 -6 42 -14 30 -14 132 -42 187 -52 14 -2 36 -7 50 -11 38 -9
42 -10 101 -17 30 -4 72 -9 94 -12 104 -15 396 -9 505 10 14 2 43 6 65 10 266
37 631 195 794 343 20 18 39 33 42 33 9 0 167 156 227 224 l51 59 -97 74 c-53
40 -123 93 -154 118 -32 25 -62 45 -68 45 -5 0 -10 4 -10 9 0 5 -15 18 -32 30
-18 11 -42 28 -53 38 -11 10 -36 30 -55 43 -19 13 -41 30 -48 37 -7 7 -26 20
-42 30 -17 9 -30 20 -30 24 0 4 -6 9 -14 12 -9 4 -54 -34 -118 -97 -98 -96
-218 -196 -237 -196 -5 0 -14 -6 -20 -14 -24 -28 -204 -105 -286 -122 -70 -14
-126 -22 -155 -22 -19 0 -37 -1 -40 -2 -14 -6 -182 -5 -186 2 -3 4 -10 5 -17
2 -16 -6 -162 22 -212 40 -82 30 -149 62 -194 91 -29 19 -55 35 -57 35 -11 0
-110 94 -164 157 -58 65 -131 213 -156 312 -18 76 -32 146 -30 159 3 16 103
17 1317 17 l1314 0 -1 210 c-1 186 -5 271 -19 395 -2 19 -4 35 -5 35 -1 0 -3
9 -4 20 -2 11 -6 38 -10 60 -4 22 -9 53 -11 68 -2 16 -9 43 -14 60 -5 18 -22
73 -36 122 -14 50 -33 108 -42 130 -8 22 -19 49 -23 60 -11 28 -97 204 -118
240 -95 165 -243 322 -438 462 -71 52 -287 151 -399 183 -22 6 -47 14 -55 17
-8 3 -24 8 -35 9 -11 2 -31 7 -45 10 -44 12 -114 22 -210 30 -51 4 -181 10
-183 8z m71 -658 c91 -10 225 -51 307 -94 86 -45 101 -57 196 -154 61 -62 86
-96 121 -170 25 -51 51 -115 58 -143 17 -68 38 -233 31 -243 -3 -4 -402 -8
-886 -8 l-880 1 1 25 c5 73 56 243 101 335 27 56 104 172 131 199 64 64 126
116 138 116 8 0 14 4 14 10 0 5 11 12 25 16 14 3 25 9 25 14 0 5 130 62 150
65 5 1 74 16 100 22 8 2 35 5 59 8 25 3 46 6 47 8 5 5 200 0 262 -7z"/>
<path d="M13378 21326 c-1 -1 -2 -778 -3 -1728 l-2 -1728 432 0 431 0 -1 93
c0 50 3 100 7 110 5 9 5 17 1 17 -12 0 -11 294 2 303 7 5 7 9 -1 15 -6 4 -9
37 -7 82 2 41 3 80 3 85 -5 191 -4 295 3 295 5 0 4 6 -2 14 -8 10 -9 16 -1 21
6 3 7 13 2 23 -9 20 -9 398 1 408 3 4 3 14 -1 23 -10 20 -9 212 1 228 4 6 4
14 0 16 -7 4 -9 362 -3 377 1 3 1 10 0 15 -9 32 -4 311 5 318 7 5 7 9 -1 15
-6 4 -9 37 -7 82 2 41 3 80 3 85 -5 186 -4 295 3 295 4 0 5 5 1 12 -11 17 -12
130 -2 151 5 9 5 17 1 17 -4 0 -8 68 -8 150 0 83 3 150 8 150 4 0 3 8 -2 18
-5 9 -8 22 -8 27 1 7 -147 10 -425 11 -236 0 -429 0 -430 0z"/>
<path d="M22375 21273 c13 -29 24 -56 24 -58 0 -3 9 -26 21 -51 11 -26 20 -49
20 -51 0 -3 7 -21 16 -41 9 -21 20 -46 24 -57 7 -18 20 -49 50 -120 49 -119
92 -226 92 -232 0 -4 6 -19 13 -33 11 -21 23 -49 30 -70 1 -3 6 -16 12 -30 12
-27 26 -62 27 -70 1 -3 4 -9 7 -15 4 -5 23 -53 44 -105 21 -52 46 -113 56
-136 11 -22 19 -45 19 -51 0 -6 7 -24 15 -40 22 -42 65 -142 65 -152 0 -4 6
-21 14 -37 8 -16 44 -103 81 -194 36 -91 72 -178 79 -195 8 -16 33 -79 57
-140 24 -60 46 -112 49 -115 3 -3 5 -9 5 -15 1 -5 9 -28 19 -50 10 -22 23 -50
27 -62 13 -34 28 -70 39 -95 41 -96 130 -320 130 -327 0 -5 7 -22 15 -38 8
-15 22 -46 31 -68 9 -22 20 -49 25 -60 37 -86 109 -270 109 -279 0 -7 5 -17
12 -24 6 -6 13 -18 14 -25 1 -7 11 -33 22 -57 11 -25 43 -105 72 -177 l53
-133 462 0 462 0 38 98 c21 53 43 111 50 127 7 17 25 62 40 100 15 39 31 79
36 90 13 29 110 278 113 290 2 6 7 19 11 30 50 119 87 212 87 223 1 6 4 12 8
12 3 0 6 8 7 18 1 9 18 55 38 102 20 47 38 92 40 100 2 8 15 41 29 73 14 31
26 58 25 60 0 2 -3 -3 75 197 32 80 63 159 71 177 8 17 15 34 15 38 0 4 7 23
16 43 26 61 44 107 43 115 0 1 12 29 26 62 15 33 38 92 52 130 14 39 29 75 33
80 6 8 29 70 35 95 1 3 6 16 12 30 6 14 19 45 28 70 9 25 23 59 30 75 22 49
77 189 79 200 2 6 10 27 19 49 9 21 17 40 17 42 0 1 5 15 12 31 6 15 12 30 13
33 10 30 18 49 31 73 7 16 14 33 14 39 0 5 7 24 14 41 8 18 49 120 91 227 42
107 84 213 94 235 14 29 16 42 7 46 -9 5 -854 6 -878 1 -5 -1 -8 -9 -8 -18 0
-9 -6 -30 -14 -47 -7 -18 -24 -59 -36 -92 -13 -33 -28 -66 -33 -72 -5 -7 -7
-13 -4 -13 3 0 -12 -43 -33 -95 -21 -52 -36 -95 -33 -95 3 0 1 -6 -4 -12 -11
-14 -38 -91 -34 -97 2 -2 -1 -7 -6 -10 -5 -3 -19 -35 -32 -71 -13 -36 -29 -78
-37 -95 -7 -16 -25 -61 -39 -100 -14 -38 -39 -104 -55 -145 -15 -41 -39 -104
-53 -140 -66 -174 -148 -387 -156 -405 -5 -11 -14 -33 -20 -50 -6 -16 -16 -43
-22 -60 -7 -16 -13 -34 -15 -40 -1 -5 -18 -49 -37 -97 -19 -48 -32 -89 -29
-92 3 -4 0 -6 -6 -6 -7 0 -11 -3 -10 -7 1 -8 -13 -47 -32 -88 -7 -16 -19 -51
-25 -75 -1 -3 -7 -18 -14 -35 -7 -16 -22 -55 -33 -85 -12 -30 -25 -66 -31 -80
-6 -14 -11 -27 -12 -30 -4 -13 -18 -47 -25 -65 -5 -11 -14 -37 -21 -58 -20
-57 -26 -50 -75 78 -4 11 -8 22 -9 25 -1 3 -7 19 -14 35 -7 17 -24 61 -37 98
-14 37 -29 76 -34 85 -18 36 -39 100 -33 106 4 3 1 6 -5 6 -7 0 -11 3 -10 8 1
4 -3 16 -9 27 -6 11 -11 22 -10 25 1 5 -42 121 -68 185 -7 17 -22 57 -35 90
-12 33 -29 74 -36 92 -8 17 -14 34 -14 37 0 3 -15 45 -34 94 -19 48 -66 173
-106 277 -39 105 -76 199 -81 210 -14 33 -32 79 -34 90 0 6 -7 24 -14 40 -17
40 -122 317 -126 330 -1 6 -7 21 -12 35 -6 14 -19 45 -28 70 -9 25 -21 54 -25
65 -17 43 -55 140 -56 145 -2 12 -32 86 -44 110 -6 13 -70 15 -478 16 l-470 1
23 -54z"/>
<path d="M36960 21318 c0 -4 5 -8 12 -8 6 0 9 -3 5 -6 -5 -5 28 -52 82 -120 4
-5 41 -55 82 -110 40 -54 79 -106 86 -114 51 -63 293 -393 293 -400 0 -4 7
-10 15 -14 8 -3 15 -10 15 -16 0 -5 8 -18 18 -28 9 -11 25 -30 34 -43 43 -61
98 -135 111 -149 7 -8 37 -49 67 -90 30 -41 57 -77 60 -80 3 -3 17 -21 30 -40
14 -19 30 -42 37 -50 6 -8 57 -76 112 -150 55 -74 107 -142 116 -151 14 -15 7
-27 -82 -148 -121 -164 -238 -320 -259 -346 -9 -11 -34 -46 -57 -77 -22 -32
-45 -58 -49 -58 -4 0 -8 -4 -8 -10 0 -8 -80 -120 -100 -140 -3 -3 -21 -27 -39
-55 -19 -27 -38 -52 -41 -55 -3 -3 -27 -34 -53 -70 -27 -36 -59 -78 -72 -95
-12 -16 -64 -86 -115 -155 -51 -69 -97 -126 -102 -128 -4 -2 -8 -10 -8 -17 0
-7 -3 -15 -7 -17 -5 -1 -36 -41 -70 -88 -34 -47 -66 -89 -71 -95 -4 -5 -57
-75 -116 -155 -60 -80 -113 -151 -119 -157 -7 -10 94 -13 502 -13 l511 0 91
123 c50 67 98 133 107 146 9 13 35 47 57 77 22 29 72 97 110 150 39 53 75 102
80 108 6 6 19 24 29 41 11 16 23 34 28 40 5 5 51 69 103 140 52 72 98 135 103
140 4 6 19 26 32 45 14 19 27 37 30 40 12 12 60 79 60 84 0 3 8 14 18 25 28
30 52 64 52 74 0 15 48 -45 119 -148 19 -27 38 -51 43 -53 4 -2 8 -8 8 -13 0
-5 7 -17 15 -26 8 -10 37 -49 65 -88 69 -94 71 -97 145 -200 36 -49 72 -99 81
-110 8 -11 37 -51 64 -90 27 -38 56 -78 64 -87 9 -10 16 -22 16 -28 0 -5 4
-10 8 -10 5 0 26 -27 48 -60 21 -33 42 -60 47 -60 4 0 7 -7 7 -15 0 -8 3 -15
8 -15 4 0 18 -18 32 -40 14 -22 28 -40 32 -40 5 0 8 -7 8 -15 0 -8 3 -15 8
-15 4 0 18 -18 32 -40 14 -22 28 -40 32 -40 4 0 10 -9 13 -20 6 -20 15 -20
536 -20 l530 0 -43 58 c-24 31 -49 63 -55 70 -7 7 -13 17 -13 20 0 4 -10 18
-23 32 -12 14 -47 59 -77 100 -62 85 -63 86 -91 120 -11 14 -28 37 -37 53 -9
15 -19 27 -23 27 -4 0 -12 14 -19 30 -7 17 -16 30 -19 30 -4 0 -38 43 -77 96
-38 53 -81 110 -96 128 -15 17 -28 34 -28 38 0 4 -6 13 -12 20 -7 7 -26 31
-43 53 -16 22 -33 45 -37 50 -5 6 -28 37 -53 70 -24 33 -48 65 -52 70 -5 6
-21 28 -38 50 -16 22 -33 42 -37 43 -4 2 -8 9 -8 16 0 6 -8 19 -17 28 -10 9
-43 51 -73 93 -30 43 -65 89 -77 103 -13 14 -23 31 -23 38 0 8 -4 14 -8 14 -5
0 -24 21 -42 48 -19 26 -37 49 -40 52 -3 3 -30 39 -60 80 -30 41 -58 77 -62
78 -5 2 -8 8 -8 13 0 8 -17 31 -45 63 -6 6 -20 25 -32 42 l-22 30 21 32 c11
18 24 32 29 32 5 0 9 5 9 10 0 12 110 163 123 168 4 2 7 8 7 13 0 9 5 16 35
52 6 7 40 53 75 102 36 50 70 95 76 100 5 6 21 27 35 47 13 21 27 38 32 38 4
0 7 6 7 14 0 7 10 24 23 37 12 13 52 65 87 114 35 50 72 99 82 109 10 11 18
23 18 27 0 4 6 14 13 21 7 7 47 60 90 118 42 58 80 110 84 115 8 10 27 35 167
225 43 58 83 112 90 120 6 9 26 36 43 61 l31 45 -491 0 -492 0 -60 -82 c-33
-45 -67 -92 -75 -104 -31 -44 -191 -266 -203 -280 -11 -14 -163 -224 -197
-273 -51 -74 -209 -289 -213 -290 -3 -1 -35 43 -71 98 -36 55 -71 108 -78 118
-7 10 -132 196 -278 415 l-265 397 -522 1 c-288 0 -523 -3 -523 -8z"/>
</g>
</svg>
